HIERARCHY
ROOT Hips
{
	OFFSET 0.000000 0.000000 0.000000
	CHANNELS 6 Xposition Yposition Zposition Xrotation Yrotation Zrotation
	JOINT LeftUpLeg_virtual
	{
		OFFSET 0.000000 0.000000 0.000000
		CHANNELS 3 Xrotation Yrotation Zrotation
		JOINT LeftUpLeg
		{
			OFFSET 13.026900 -6.336304 -1.092800
			CHANNELS 3 Xrotation Yrotation Zrotation
			JOINT LeftLeg
			{
				OFFSET 0.524474 -46.096886 9.782700
				CHANNELS 3 Xrotation Yrotation Zrotation
				JOINT LeftFoot
				{
					OFFSET -0.524474 -53.427422 -12.948200
					CHANNELS 3 Xrotation Yrotation Zrotation
					JOINT LeftToeBase
					{
						OFFSET 0.192200 -14.009700 16.364100
						CHANNELS 3 Xrotation Yrotation Zrotation
						JOINT LeftToe_End
						{
							OFFSET -1.784700 -0.561700 9.474800
							CHANNELS 3 Xrotation Yrotation Zrotation
							End Site
							{
								OFFSET 0 0 0
							}
						}
					}
				}
			}
		}
	}
	JOINT RightUpLeg_virtual
	{
		OFFSET 0.000000 0.000000 0.000000
		CHANNELS 3 Xrotation Yrotation Zrotation
		JOINT RightUpLeg
		{
			OFFSET -12.883000 -6.336304 -1.092800
			CHANNELS 3 Xrotation Yrotation Zrotation
			JOINT RightLeg
			{
				OFFSET -0.524587 -46.096825 9.782800
				CHANNELS 3 Xrotation Yrotation Zrotation
				JOINT RightFoot
				{
					OFFSET 0.524587 -53.427383 -12.948300
					CHANNELS 3 Xrotation Yrotation Zrotation
					JOINT RightToeBase
					{
						OFFSET -0.192200 -14.009700 16.364100
						CHANNELS 3 Xrotation Yrotation Zrotation
						JOINT RightToe_End
						{
							OFFSET 1.784700 -0.561700 9.474800
							CHANNELS 3 Xrotation Yrotation Zrotation
							End Site
							{
								OFFSET 0 0 0
							}
						}
					}
				}
			}
		}
	}
	JOINT Spine_virtual
	{
		OFFSET 0.000000 0.000000 0.000000
		CHANNELS 3 Xrotation Yrotation Zrotation
		JOINT Spine
		{
			OFFSET 0.072000 7.257294 -0.789700
			CHANNELS 3 Xrotation Yrotation Zrotation
			JOINT Spine1
			{
				OFFSET 0.000000 12.508769 -0.658067
				CHANNELS 3 Xrotation Yrotation Zrotation
				JOINT Spine1_split
				{
					OFFSET 0.000000 12.508769 -0.658067
					CHANNELS 3 Xrotation Yrotation Zrotation
					JOINT Spine2
					{
						OFFSET 0.000000 12.508769 -0.658067
						CHANNELS 3 Xrotation Yrotation Zrotation
						JOINT Neck_virtual
						{
							OFFSET 0.000000 0.000000 0.000000
							CHANNELS 3 Xrotation Yrotation Zrotation
							JOINT Neck
							{
								OFFSET 0.000000 14.033295 7.520400
								CHANNELS 3 Xrotation Yrotation Zrotation
								JOINT Head
								{
									OFFSET 0.000000 8.198502 5.703100
									CHANNELS 3 Xrotation Yrotation Zrotation
									JOINT HeadTop_End
									{
										OFFSET 0.000000 17.760803 13.332701
										CHANNELS 3 Xrotation Yrotation Zrotation
										End Site
										{
											OFFSET 0 0 0
										}
									}
								}
							}
						}
						JOINT LeftShoulder_virtual
						{
							OFFSET 0.000000 0.000000 0.000000
							CHANNELS 3 Xrotation Yrotation Zrotation
							JOINT LeftShoulder
							{
								OFFSET 6.292450 5.785301 -0.669000
								CHANNELS 3 Xrotation Yrotation Zrotation
								JOINT LeftShoulder_split
								{
									OFFSET 6.292450 5.785301 -0.669000
									CHANNELS 3 Xrotation Yrotation Zrotation
									JOINT LeftArm
									{
										OFFSET 13.907140 -6.093903 1.965100
										CHANNELS 3 Xrotation Yrotation Zrotation
										JOINT LeftForeArm
										{
											OFFSET 34.140198 0.000000 0.000000
											CHANNELS 3 Xrotation Yrotation Zrotation
											JOINT LeftHand
											{
												OFFSET 40.960209 0.000000 0.000000
												CHANNELS 3 Xrotation Yrotation Zrotation
												End Site
												{
													OFFSET 0 0 0
												}
											}
										}
									}
								}
							}
						}
						JOINT RightShoulder_virtual
						{
							OFFSET 0.000000 0.000000 0.000000
							CHANNELS 3 Xrotation Yrotation Zrotation
							JOINT RightShoulder
							{
								OFFSET -6.292450 5.785301 -0.669000
								CHANNELS 3 Xrotation Yrotation Zrotation
								JOINT RightShoulder_split
								{
									OFFSET -6.292450 5.785301 -0.669000
									CHANNELS 3 Xrotation Yrotation Zrotation
									JOINT RightArm
									{
										OFFSET -13.907140 -6.093903 1.965100
										CHANNELS 3 Xrotation Yrotation Zrotation
										JOINT RightForeArm
										{
											OFFSET -34.140198 0.000000 0.000000
											CHANNELS 3 Xrotation Yrotation Zrotation
											JOINT RightHand
											{
												OFFSET -40.960209 0.000000 0.000000
												CHANNELS 3 Xrotation Yrotation Zrotation
												End Site
												{
													OFFSET 0 0 0
												}
											}
										}
									}
								}
							}
						}
					}
				}
			}
		}
	}
}
MOTION
Frames: 10
Frame Time: 0.03333333
-1.519279 87.113503 9.870140 0.000000 0.000000 0.000000 23.010474 -19.871551 7.776938 -73.085401 -2.708849 26.406601 60.847075 -5.491889 3.063190 -0.263532 2.792587 -20.704747 -3.987636 -0.279536 -0.114150 0.000000 0.000000 0.000000 23.006394 -21.189917 8.368835 -61.685774 -2.291752 -27.856816 62.656583 6.483521 -4.419234 -12.661140 -6.262293 20.961495 -5.290799 0.978646 0.495102 0.000000 0.000000 0.000000 25.319344 -21.972428 8.309694 15.632833 2.062654 -0.780820 10.018757 1.913758 -1.205980 1.197150 0.986210 0.661242 0.000000 0.000000 0.000000 10.285843 1.675555 -0.423183 -8.634822 4.720601 -9.058893 -40.642969 10.625788 8.926125 0.000000 0.000000 0.000000 10.197713 1.781911 -1.205191 3.647273 -6.065882 7.606432 -5.256201 -3.246121 -0.630573 -51.835364 4.863741 -61.024892 -1.725322 -83.438848 -0.600317 0.000000 0.000000 0.000000 11.209336 2.147814 -0.668160 3.146494 12.603381 3.882519 1.768180 3.784422 1.841253 -42.083767 11.650274 45.871643 169.033522 88.389417 -169.744039 0.000000 0.000000 0.000000 
-1.470474 87.250549 10.091160 0.000000 0.000000 0.000000 23.453073 -20.026125 8.250079 -72.797959 -2.512828 25.939691 59.837655 -5.789461 3.150633 -0.573696 2.746952 -20.555084 -3.961070 -0.270142 -0.093666 0.000000 0.000000 0.000000 23.370778 -21.267435 8.792419 -61.830103 -2.484525 -27.740009 62.132742 6.528403 -4.879896 -12.759602 -6.503474 21.319560 -5.267308 0.970897 0.481204 0.000000 0.000000 0.000000 25.326456 -21.670874 8.553991 15.700943 2.084705 -0.781662 9.886129 1.980020 -1.268054 1.042439 0.640564 0.762594 0.000000 0.000000 0.000000 10.337514 1.697195 -0.485230 -8.203435 4.686135 -8.672590 -40.910484 11.411826 8.751830 0.000000 0.000000 0.000000 10.234789 1.813644 -1.157330 3.455259 -5.403958 6.733168 -5.325683 -3.200578 -0.860329 -50.441555 5.218923 -61.982416 -2.354838 -85.724926 -1.403809 0.000000 0.000000 0.000000 11.236307 2.094397 -0.760139 2.996383 12.465537 5.099026 1.426814 4.016027 1.695240 -40.531705 11.961791 46.703109 177.030061 85.141914 -177.873316 0.000000 0.000000 0.000000 
-1.525197 87.176407 10.254807 0.000000 0.000000 0.000000 23.825313 -20.240566 8.700390 -72.794776 -2.336114 25.744030 59.404764 -6.087801 3.205004 -0.783151 2.683563 -20.580241 -3.968306 -0.270972 -0.023656 0.000000 0.000000 0.000000 23.844390 -21.503442 9.240890 -62.334185 -2.486124 -27.615529 62.068210 6.512618 -5.247803 -12.971608 -6.572696 21.510405 -4.983816 0.986649 0.468921 0.000000 0.000000 0.000000 25.425173 -21.544082 8.822706 15.749684 2.065473 -0.755281 9.860742 1.912654 -1.302915 0.894869 0.474993 0.779736 0.000000 0.000000 0.000000 10.476072 1.595925 -0.542132 -7.710686 4.655090 -8.324441 -41.215844 12.180615 8.504870 0.000000 0.000000 0.000000 10.405546 1.714584 -1.081494 3.316173 -4.986643 6.161280 -5.220779 -3.069345 -0.998381 -48.863235 5.609423 -62.471506 -3.048143 -88.409347 -2.196173 0.000000 0.000000 0.000000 11.340803 1.903197 -0.835033 2.926580 12.274846 5.767604 1.108232 3.998176 1.561867 -39.579734 11.748111 47.986457 178.608641 81.342376 -179.563460 0.000000 0.000000 0.000000 
-1.669042 86.939438 10.375465 0.000000 0.000000 0.000000 24.185620 -20.491881 9.112951 -72.986397 -2.205495 25.784628 59.406807 -6.286717 3.219630 -0.925041 2.715229 -20.651531 -3.921918 -0.279829 0.080834 0.000000 0.000000 0.000000 24.400745 -21.858422 9.689108 -63.033193 -2.394642 -27.506649 62.385657 6.440773 -5.494866 -13.207467 -6.490444 21.536742 -4.629663 1.023065 0.455185 0.000000 0.000000 0.000000 25.636552 -21.515084 9.074053 15.770728 1.999060 -0.695029 9.953627 1.758711 -1.307707 0.874064 0.378585 0.813012 0.000000 0.000000 0.000000 10.680159 1.414656 -0.588214 -7.266843 4.646970 -8.068099 -41.582134 12.931140 8.162620 0.000000 0.000000 0.000000 10.692573 1.525126 -0.990526 3.226184 -4.863452 5.593095 -4.928719 -2.819612 -0.981572 -47.250105 6.044306 -62.544609 -179.570263 -89.078890 -178.711872 0.000000 0.000000 0.000000 11.509716 1.633581 -0.886239 2.909153 12.108055 5.998099 0.829907 3.872560 1.458224 -38.953890 10.913072 49.503043 179.111835 77.351851 179.852377 0.000000 0.000000 0.000000 
-1.879256 86.615166 10.402164 0.000000 0.000000 0.000000 24.550010 -20.834787 9.503438 -73.222920 -2.168836 25.960753 59.632756 -6.370824 3.230378 -1.022116 2.894625 -20.758234 -3.785599 -0.288886 0.178278 0.000000 0.000000 0.000000 24.945886 -22.303713 10.108803 -63.894555 -2.243182 -27.410160 62.968668 6.377688 -5.642655 -13.385165 -6.280658 21.588281 -4.432293 1.062017 0.446178 0.000000 0.000000 0.000000 25.934775 -21.577594 9.317458 15.771233 1.888788 -0.600180 10.125456 1.565592 -1.277457 0.909106 0.294983 0.751601 0.000000 0.000000 0.000000 10.915844 1.204942 -0.625888 -6.900289 4.616465 -7.944481 -41.967066 13.700765 7.696368 0.000000 0.000000 0.000000 11.044542 1.300312 -0.913760 3.156039 -4.930092 4.757412 -4.692274 -2.448900 -0.769737 -45.727229 6.423171 -62.366751 179.523149 -87.109979 -179.566315 0.000000 0.000000 0.000000 11.753473 1.369757 -0.915921 2.914029 11.991939 5.920904 0.569854 3.791378 1.379083 -38.360327 9.792169 50.870774 179.249080 73.780810 179.655695 0.000000 0.000000 0.000000 
-2.119833 86.247673 10.348614 0.000000 0.000000 0.000000 24.916930 -21.248812 9.867379 -73.387760 -2.265619 26.163868 59.878834 -6.390380 3.264133 -1.107815 3.189163 -20.918602 -3.657038 -0.301289 0.265250 0.000000 0.000000 0.000000 25.421727 -22.768347 10.475291 -64.795020 -2.066202 -27.356711 63.759454 6.353309 -5.721275 -13.536395 -5.988652 21.728159 -4.500004 1.093238 0.445597 0.000000 0.000000 0.000000 26.266524 -21.681857 9.563741 15.737748 1.768342 -0.474266 10.347323 1.402306 -1.214884 1.090716 0.343790 0.741920 0.000000 0.000000 0.000000 11.150910 1.028889 -0.644781 -6.607047 4.558922 -7.997197 -42.394202 14.477609 7.110783 0.000000 0.000000 0.000000 11.416942 1.095193 -0.849024 3.083693 -5.038090 3.630795 -4.423508 -2.082193 -0.380673 -44.472694 6.579952 -62.210907 179.783529 -85.823458 -179.256484 0.000000 0.000000 0.000000 12.044152 1.178291 -0.917858 2.918175 11.936154 5.727154 0.265912 3.627957 1.474908 -37.685412 8.922772 51.855739 179.259230 71.257137 179.596068 0.000000 0.000000 0.000000 
-2.348781 85.853905 10.230537 0.000000 0.000000 0.000000 25.252849 -21.633485 10.161716 -73.489810 -2.493113 26.316454 60.035075 -6.418867 3.328334 -1.157017 3.511247 -21.167776 -3.618499 -0.322486 0.347763 0.000000 0.000000 0.000000 25.797696 -23.218818 10.785982 -65.692152 -1.885490 -27.383555 64.694882 6.360104 -5.740469 -13.777519 -5.684895 21.905675 -4.733949 1.106562 0.452316 0.000000 0.000000 0.000000 26.582838 -21.792163 9.806126 15.654059 1.647059 -0.326097 10.583306 1.294465 -1.122520 1.123810 0.419804 0.736016 0.000000 0.000000 0.000000 11.396383 0.913778 -0.635517 -6.354666 4.466697 -8.191905 -42.816004 15.208448 6.399311 0.000000 0.000000 0.000000 11.779793 0.938595 -0.779846 2.986749 -5.048260 2.266258 -4.273634 -1.758314 -0.148735 -43.382554 6.558179 -62.176332 -179.692496 -85.149906 -178.742513 0.000000 0.000000 0.000000 12.319771 1.056034 -0.864006 2.905321 11.868015 5.580505 0.046355 3.537597 1.636602 -36.849219 8.542820 52.392093 179.247605 69.871456 179.548270 0.000000 0.000000 0.000000 
-2.575009 85.457497 10.080513 0.000000 0.000000 0.000000 25.504032 -21.928254 10.370459 -73.532130 -2.827315 26.394762 60.057526 -6.505799 3.412986 -1.131117 3.763269 -21.508880 -3.696554 -0.355293 0.434054 0.000000 0.000000 0.000000 26.041939 -23.579965 11.022688 -66.478347 -1.707652 -27.478730 65.685007 6.379938 -5.707292 -14.203211 -5.426298 22.025982 -4.921900 1.103002 0.466245 0.000000 0.000000 0.000000 26.828464 -21.884223 10.044481 15.510827 1.541530 -0.171715 10.798604 1.226149 -0.998278 0.998691 0.506842 0.758766 0.000000 0.000000 0.000000 11.637052 0.855685 -0.591806 -6.065284 4.347617 -8.495224 -43.188471 15.865367 5.631052 0.000000 0.000000 0.000000 12.107840 0.823846 -0.694581 2.864048 -4.855485 0.874341 -4.215520 -1.557439 -0.059825 -42.448027 6.357403 -62.276415 -179.490282 -84.716544 -178.646876 0.000000 0.000000 0.000000 12.566667 0.991581 -0.756625 2.874257 11.738184 5.528934 -0.093466 3.472328 1.928402 -35.812239 8.691388 52.513302 179.232852 69.175036 179.516236 0.000000 0.000000 0.000000 
-2.779266 85.075180 9.915310 0.000000 0.000000 0.000000 25.647113 -22.065978 10.485449 -73.529548 -3.231625 26.407588 59.955284 -6.635056 3.485930 -1.046082 3.902199 -21.846391 -3.813982 -0.395200 0.518327 0.000000 0.000000 0.000000 26.177665 -23.787852 11.182448 -67.046872 -1.550414 -27.627751 66.655563 6.377340 -5.632117 -14.805997 -5.261895 21.995164 -4.960886 1.087998 0.481874 0.000000 0.000000 0.000000 26.986477 -21.930281 10.247780 15.308049 1.446315 -0.034567 11.002082 1.186378 -0.858910 0.801130 0.615658 0.862289 0.000000 0.000000 0.000000 11.874434 0.830375 -0.509367 -5.723964 4.239321 -8.838801 -43.495382 16.406145 4.879366 0.000000 0.000000 0.000000 12.398467 0.742310 -0.578261 2.732518 -4.481951 -0.346741 -4.164474 -1.540303 -0.165666 -41.586505 6.070098 -62.377017 -179.679082 -84.262801 -179.002811 0.000000 0.000000 0.000000 12.759587 0.942520 -0.598739 2.830518 11.572525 5.654863 -0.200131 3.365709 2.199446 -34.664289 9.074418 52.384873 179.251389 68.673194 179.488984 0.000000 0.000000 0.000000 
-2.986618 84.730804 9.786713 0.000000 0.000000 0.000000 25.687279 -22.071236 10.518007 -73.493641 -3.662411 26.380216 59.799959 -6.784291 3.533125 -0.941126 3.943255 -22.140639 -3.864426 -0.433512 0.594800 0.000000 0.000000 0.000000 26.208674 -23.865398 11.268430 -67.401775 -1.415468 -27.805123 67.603430 6.348424 -5.521760 -15.430441 -5.204779 21.865666 -4.900788 1.062791 0.495067 0.000000 0.000000 0.000000 27.077640 -21.897518 10.391919 15.079644 1.343080 0.072737 11.205594 1.139533 -0.717390 0.556406 0.720266 0.879009 0.000000 0.000000 0.000000 12.102329 0.812699 -0.406014 -5.351160 4.172339 -9.155706 -43.731324 16.791557 4.220921 0.000000 0.000000 0.000000 12.662118 0.676554 -0.439286 2.607499 -4.017017 -1.314619 -4.150396 -1.652493 -0.394037 -40.757433 5.814662 -62.326091 179.791452 -83.627265 -179.729133 0.000000 0.000000 0.000000 12.917461 0.887297 -0.416304 2.777827 11.403765 5.912274 -0.259080 3.402902 2.414315 -33.475727 9.346499 52.120279 179.303940 68.051722 179.483110 0.000000 0.000000 0.000000 
